<?xml version="1.0" ?><svg id="Layer_1" style="enable-background:new 0 0 62 62;" version="1.1" viewBox="0 0 62 62" xml:space="preserve" xmlns="http://www.w3.org/2000/svg" xmlns:xlink="http://www.w3.org/1999/xlink"><style type="text/css">
	.st0{fill:#5FD2FF;}
	.st1{fill:#FFFFFF;}
	.st2{fill:#0082ED;}
	.st3{fill:#2BA8FC;}
	.st4{fill:#CECECE;}
	.st5{fill:#F92B75;}
	.st6{fill:#3BB0FF;}
	.st7{fill:#CE004F;}
	.st8{fill:none;stroke:#ED0C68;stroke-width:5;stroke-linecap:round;stroke-linejoin:round;stroke-miterlimit:10;}
	.st9{fill:#ED0C68;}
	.st10{fill:#78DED4;}
	.st11{fill:#1E5363;}
	.st12{fill:#54C8E8;}
	.st13{fill:#F4F4F4;}
	.st14{fill:#0C82EB;}
	.st15{fill:#00B2E3;}
	.st16{fill:#68A2B9;}
	.st17{fill:#A2C5D3;}
	.st18{fill:#76777A;}
	.st19{fill:#A7A8A9;}
	.st20{fill:#D6D6D6;}
	.st21{fill:none;stroke:#F92B75;stroke-width:5;stroke-linecap:round;stroke-linejoin:round;stroke-miterlimit:10;}
	.st22{fill:#FD4A5C;}
	.st23{fill:#FF8E9F;}
	.st24{fill:none;stroke:#F458A3;stroke-width:5;stroke-linecap:round;stroke-linejoin:round;stroke-miterlimit:10;}
	.st25{fill:#FFB259;}
	.st26{fill:#F32735;}
	.st27{fill:#FF9E18;}
	.st28{fill:#FFC27A;}
	.st29{fill:#FFC56D;}
	.st30{fill:none;stroke:#FD4A5C;stroke-width:5;stroke-linecap:round;stroke-linejoin:round;stroke-miterlimit:10;}
	.st31{fill:#0069A7;}
	.st32{fill:#D8D8D8;}
	.st33{fill:#8CB7C9;}
	.st34{fill:#65BAAF;}
	.st35{fill:#00AF9A;}
	.st36{fill:#00C4B3;}
	.st37{fill:#19D3C5;}
	.st38{fill:none;stroke:#54C8E8;stroke-width:5;stroke-linecap:round;stroke-linejoin:round;stroke-miterlimit:10;}
	.st39{fill:#8331A7;}
	.st40{fill:#009383;}
	.st41{fill:#98989A;}
	.st42{fill:#636569;}
	.st43{fill:#898A8D;}
	.st44{fill:#FFB548;}
	.st45{fill:none;stroke:#FFB548;stroke-width:5;stroke-linecap:round;stroke-linejoin:round;stroke-miterlimit:10;}
	.st46{fill:#ED40A9;}
	.st47{fill:#CB007B;}
	.st48{fill:#E50695;}
	.st49{fill:#D7282F;}
	.st50{fill:#E5E5E5;}
	.st51{fill:#FFA4B4;}
	.st52{fill:#F6A7D7;}
	.st53{fill:#F478C4;}
	.st54{fill:#E0C7E6;}
	.st55{fill:#B980D0;}
	.st56{fill:#D9B7E2;}
	.st57{fill:#BADF93;}
	.st58{fill:#4C9C2E;}
	.st59{fill:#3DAE2B;}
	.st60{fill:#AADA91;}
	.st61{fill:#6ABF4B;}
	.st62{fill:#EFB8A9;}
	.st63{fill:#FECB8B;}
	.st64{fill:#BDE8EF;}
	.st65{fill:#CCA1DD;}
	.st66{fill:#B2B2B2;}
	.st67{fill:none;stroke:#FF8300;stroke-width:5;stroke-linecap:round;stroke-linejoin:round;stroke-miterlimit:10;}
	.st68{fill:none;stroke:#FF9E18;stroke-width:5;stroke-linecap:round;stroke-linejoin:round;stroke-miterlimit:10;}
	.st69{fill:#96DAEA;}
	.st70{fill:#FF8300;}
	.st71{fill:none;stroke:#6ABF4B;stroke-width:5;stroke-linecap:round;stroke-linejoin:round;stroke-miterlimit:10;}
	.st72{fill:none;}
	.st73{fill:#444444;}
	.st74{fill:#FDCF85;}
</style><g><path class="st13" d="M59.5,4.5v36.96L41.46,59.5H4.5c-1.1,0-2-0.9-2-2v-53c0-1.1,0.9-2,2-2h53C58.6,2.5,59.5,3.4,59.5,4.5z"/><path class="st18" d="M41.46,62H4.5C2.02,62,0,59.98,0,57.5v-53C0,2.02,2.02,0,4.5,0h53C59.98,0,62,2.02,62,4.5v36.96   c0,0.66-0.26,1.3-0.73,1.77L43.23,61.27C42.76,61.74,42.12,62,41.46,62z M5,57h35.42L57,40.42V5H5V57z M59.5,41.46L59.5,41.46   L59.5,41.46z"/><rect class="st29" height="13.57" width="57" x="2.5" y="2.5"/><path class="st27" d="M59.5,18.57h-57c-1.38,0-2.5-1.12-2.5-2.5V4.5C0,2.02,2.02,0,4.5,0h53C59.98,0,62,2.02,62,4.5v11.57   C62,17.45,60.88,18.57,59.5,18.57z M5,13.57h52V5H5V13.57z"/><path class="st22" d="M2.5,18.57c-1.38,0-2.5-1.12-2.5-2.5V4.5C0,2.02,2.02,0,4.5,0h19.22c1.38,0,2.5,1.12,2.5,2.5S25.1,5,23.72,5   H5v11.07C5,17.45,3.88,18.57,2.5,18.57z"/><g><path class="st22" d="M45.17,33.42H16.83c-1.38,0-2.5-1.12-2.5-2.5s1.12-2.5,2.5-2.5h28.35c1.38,0,2.5,1.12,2.5,2.5    S46.56,33.42,45.17,33.42z"/><path class="st22" d="M45.17,45.42H16.83c-1.38,0-2.5-1.12-2.5-2.5s1.12-2.5,2.5-2.5h28.35c1.38,0,2.5,1.12,2.5,2.5    S46.56,45.42,45.17,45.42z"/></g><path class="st13" d="M41.46,59.5V43.46c0-1.1,0.9-2,2-2H59.5L41.46,59.5z"/><path class="st18" d="M41.46,62c-0.32,0-0.65-0.06-0.96-0.19c-0.93-0.39-1.54-1.3-1.54-2.31V43.46c0-2.48,2.02-4.5,4.5-4.5H59.5   c1.01,0,1.92,0.61,2.31,1.54c0.39,0.93,0.17,2.01-0.54,2.72L43.23,61.27C42.75,61.75,42.11,62,41.46,62z M43.96,43.96v9.5l9.5-9.5   H43.96z"/></g></svg>